<svg xmlns="http://www.w3.org/2000/svg" xmlns:xlink="http://www.w3.org/1999/xlink" width="500" zoomAndPan="magnify" viewBox="0 0 375 374.999991" height="500" preserveAspectRatio="xMidYMid meet" version="1.2"><defs><clipPath id="3eb7c3f6c7"><path d="M 193.054688 114 L 337 114 L 337 260.902344 L 193.054688 260.902344 Z M 193.054688 114 "/></clipPath></defs><g id="3b5bf1041b"><g clip-rule="nonzero" clip-path="url(#3eb7c3f6c7)"><path style=" stroke:none;fill-rule:evenodd;fill:#ffffff;fill-opacity:1;" d="M 253.859375 115.042969 C 254.113281 114.046875 257.164062 113.964844 260.671875 114.867188 C 264.183594 115.769531 266.820312 117.308594 266.5625 118.304688 C 266.308594 119.304688 263.257812 119.382812 259.746094 118.480469 C 256.238281 117.582031 253.597656 116.039062 253.859375 115.042969 Z M 225.183594 119.773438 C 225.003906 118.929688 227.464844 117.695312 230.679688 117.015625 C 233.890625 116.339844 236.644531 116.476562 236.816406 117.320312 C 236.996094 118.167969 234.535156 119.402344 231.320312 120.078125 C 228.109375 120.757812 225.363281 120.621094 225.183594 119.773438 Z M 314.382812 153.863281 C 305.925781 151.875 297.621094 145.796875 295.667969 136.859375 C 295.304688 135.210938 295.578125 132.203125 294.746094 130.5625 C 293.070312 127.277344 290.46875 125.082031 286.945312 123.984375 C 283.445312 122.898438 278.40625 123.480469 276.640625 127.109375 C 274.234375 132.058594 278.613281 137.042969 282.761719 139 C 283.429688 139.324219 284.765625 139.699219 286.757812 140.136719 C 295.148438 141.972656 304.238281 148.84375 305.21875 157.964844 C 305.457031 160.148438 305.574219 161.246094 305.578125 161.253906 C 306.910156 167.566406 313.902344 171.730469 320.121094 170.042969 C 325.171875 168.675781 326.011719 163.082031 323.277344 159.210938 C 322.023438 157.441406 320.464844 156.078125 318.597656 155.140625 C 317.898438 154.785156 316.496094 154.359375 314.382812 153.863281 Z M 294.960938 128.003906 C 295.546875 127.121094 298.402344 127.988281 301.34375 129.9375 C 304.28125 131.890625 306.1875 134.191406 305.597656 135.070312 C 305.011719 135.957031 302.15625 135.085938 299.21875 133.136719 C 296.28125 131.183594 294.371094 128.886719 294.960938 128.003906 Z M 278.457031 151.105469 C 272.03125 150.324219 264.542969 144.539062 268.667969 137.25 C 269.183594 136.339844 269.476562 135.632812 269.550781 135.125 C 269.835938 133.050781 268.996094 131.566406 267.023438 130.664062 C 264.378906 129.457031 261.433594 129.167969 258.183594 129.800781 C 254.800781 130.453125 250.601562 132.277344 249.488281 135.652344 C 248.253906 139.378906 252.324219 141.464844 255.609375 141.828125 C 263.175781 142.65625 272.589844 146.601562 268.101562 156.117188 C 267.554688 157.273438 267.273438 158.171875 267.261719 158.804688 C 267.234375 160.355469 267.9375 161.558594 269.375 162.40625 C 274.230469 165.257812 281.914062 163.910156 285.894531 160.066406 C 288.757812 157.296875 287.828125 153.628906 284.105469 152.199219 C 282.367188 151.535156 280.304688 151.320312 278.457031 151.105469 Z M 227.953125 139.867188 C 228.902344 137.382812 232.375 136.40625 235.707031 137.679688 C 239.042969 138.953125 240.976562 141.996094 240.027344 144.476562 C 239.078125 146.957031 235.613281 147.9375 232.277344 146.664062 C 228.941406 145.390625 227.007812 142.34375 227.953125 139.867188 Z M 329.589844 163.472656 C 328.640625 163.964844 326.570312 161.855469 324.960938 158.757812 C 323.355469 155.65625 322.824219 152.75 323.773438 152.257812 C 324.726562 151.765625 326.796875 153.875 328.402344 156.976562 C 330.007812 160.074219 330.542969 162.980469 329.589844 163.472656 Z M 296.992188 179.746094 C 293.523438 180.886719 289.71875 178.789062 288.496094 175.066406 C 287.273438 171.34375 289.09375 167.402344 292.5625 166.261719 C 296.027344 165.121094 299.832031 167.214844 301.058594 170.941406 C 302.28125 174.664062 300.460938 178.605469 296.992188 179.746094 Z M 214.871094 207.632812 C 213.28125 214.777344 219.464844 220.195312 226.476562 218.953125 C 230.917969 218.175781 233.828125 215.175781 235.710938 211.113281 C 240.046875 201.746094 250.808594 195.621094 261.035156 197.980469 C 266.238281 199.171875 270.449219 200.820312 273.675781 204.953125 C 277.449219 209.789062 278.539062 215.371094 276.949219 221.695312 C 276.523438 223.390625 275.328125 225.808594 274.976562 227.699219 C 273.972656 233.050781 276.949219 237.804688 282.214844 238.929688 C 286.867188 239.921875 291.628906 237.789062 294.285156 233.894531 C 297.445312 229.265625 296.78125 223.101562 291.925781 219.929688 C 290.515625 219.015625 287.816406 218.324219 286.21875 217.472656 C 277.621094 212.882812 274.585938 202.527344 278.054688 193.699219 C 278.777344 191.851562 279.199219 190.59375 279.316406 189.921875 C 280.324219 184.03125 276.6875 179.28125 270.886719 178.601562 C 265.09375 177.925781 260.660156 180.957031 258.195312 186.273438 C 253.746094 195.839844 243.683594 201.425781 233.21875 199.875 C 231.15625 199.566406 228.660156 198.402344 226.390625 198.429688 C 220.933594 198.492188 216.066406 202.246094 214.871094 207.632812 Z M 313.773438 188.5625 C 312.117188 187.800781 310.734375 186.6875 309.632812 185.222656 C 308.328125 183.484375 307.058594 181.371094 305.359375 180.523438 C 302.203125 178.949219 299.554688 181.671875 298.644531 184.746094 C 297.585938 188.335938 297.6875 191.839844 298.949219 195.253906 C 299.164062 195.835938 299.890625 197.210938 301.132812 199.386719 C 305.820312 207.597656 306.9375 218.539062 303.09375 227.375 C 302.371094 229.039062 301.933594 230.222656 301.789062 230.933594 C 301.058594 234.453125 301.4375 237.902344 302.933594 241.277344 C 304.011719 243.726562 306.855469 246.789062 309.707031 245.695312 C 314.601562 243.832031 314.191406 235.09375 312.894531 231.296875 C 312.660156 230.605469 311.933594 229.1875 310.707031 227.042969 C 305.34375 217.644531 304.605469 205.890625 310.152344 196.144531 C 312.976562 191.175781 318.632812 189.644531 323.128906 193.636719 C 324.632812 194.964844 325.949219 196.46875 327.070312 198.136719 C 329.625 201.9375 334.101562 201.492188 335.746094 197.199219 C 337.496094 192.640625 336.964844 186.683594 334.085938 182.6875 C 332.414062 180.375 329.625 178.828125 327.175781 181.023438 C 326.796875 181.355469 326.175781 182.265625 325.320312 183.742188 C 322.757812 188.164062 319 190.957031 313.773438 188.5625 Z M 200.9375 227.125 C 196.96875 227.308594 193.585938 223.820312 193.382812 219.339844 C 193.183594 214.855469 196.234375 211.074219 200.195312 210.894531 C 204.164062 210.714844 207.546875 214.199219 207.746094 218.683594 C 207.949219 223.164062 204.902344 226.945312 200.9375 227.125 Z M 324.226562 224.550781 C 323.300781 224.164062 323.722656 221.0625 325.171875 217.628906 C 326.625 214.195312 328.550781 211.730469 329.476562 212.121094 C 330.40625 212.515625 329.984375 215.617188 328.53125 219.046875 C 327.082031 222.480469 325.15625 224.941406 324.226562 224.550781 Z M 244.492188 229.816406 C 245.25 226.164062 249.269531 223.914062 253.472656 224.785156 C 257.679688 225.65625 260.472656 229.320312 259.71875 232.972656 C 258.960938 236.621094 254.941406 238.875 250.734375 238.003906 C 246.535156 237.132812 243.738281 233.46875 244.492188 229.816406 Z M 286.546875 253.410156 C 284.605469 251.972656 284.636719 248.636719 286.617188 245.960938 C 288.601562 243.28125 291.78125 242.273438 293.726562 243.714844 C 295.667969 245.152344 295.636719 248.488281 293.65625 251.164062 C 291.675781 253.84375 288.492188 254.847656 286.546875 253.410156 Z M 298.589844 260.152344 C 297.914062 259.414062 299.441406 256.933594 302 254.617188 C 304.554688 252.300781 307.171875 251.023438 307.847656 251.761719 C 308.519531 252.503906 306.992188 254.988281 304.4375 257.304688 C 301.878906 259.621094 299.261719 260.894531 298.589844 260.152344 Z M 298.589844 260.152344 "/></g><g style="fill:#ffffff;fill-opacity:1;"><g transform="translate(37.017186, 154.89721)"><path style="stroke:none" d="M 5.296875 0 L -0.28125 0 L 7.3125 -20.0625 L 13.03125 -20.0625 L 20.625 0 L 15.046875 0 L 13.75 -3.578125 L 6.59375 -3.578125 Z M 7.875 -7.3125 L 12.46875 -7.3125 L 10.171875 -14.046875 Z M 7.875 -7.3125 "/></g></g><g style="fill:#ffffff;fill-opacity:1;"><g transform="translate(57.785841, 154.89721)"><path style="stroke:none" d="M 7.734375 -14.609375 L 7.734375 0 L 2.71875 0 L 2.71875 -10.75 L 0.578125 -10.75 L 0.578125 -14.609375 Z M 2.71875 -20.34375 L 7.734375 -20.34375 L 7.734375 -16.328125 L 2.71875 -16.328125 Z M 2.71875 -20.34375 "/></g></g><g style="fill:#ffffff;fill-opacity:1;"><g transform="translate(37.017186, 186.529239)"><path style="stroke:none" d="M 1.125 -4.15625 C 6.351562 -3.863281 9.894531 -3.71875 11.75 -3.71875 C 12.1875 -3.71875 12.535156 -3.847656 12.796875 -4.109375 C 13.054688 -4.367188 13.1875 -4.71875 13.1875 -5.15625 L 13.1875 -7.734375 L 6.59375 -7.734375 C 4.582031 -7.734375 3.125 -8.1875 2.21875 -9.09375 C 1.3125 -10 0.859375 -11.457031 0.859375 -13.46875 L 0.859375 -14.328125 C 0.859375 -16.335938 1.3125 -17.796875 2.21875 -18.703125 C 3.125 -19.609375 4.582031 -20.0625 6.59375 -20.0625 L 16.65625 -20.0625 L 16.65625 -16.046875 L 7.734375 -16.046875 C 6.585938 -16.046875 6.015625 -15.472656 6.015625 -14.328125 L 6.015625 -13.75 C 6.015625 -12.601562 6.585938 -12.03125 7.734375 -12.03125 L 12.890625 -12.03125 C 14.765625 -12.03125 16.140625 -11.59375 17.015625 -10.71875 C 17.898438 -9.84375 18.34375 -8.46875 18.34375 -6.59375 L 18.34375 -5.15625 C 18.34375 -3.28125 17.898438 -1.90625 17.015625 -1.03125 C 16.140625 -0.15625 14.765625 0.28125 12.890625 0.28125 C 11.921875 0.28125 10.890625 0.265625 9.796875 0.234375 L 7.15625 0.109375 C 5.207031 0.015625 3.195312 -0.113281 1.125 -0.28125 Z M 1.125 -4.15625 "/></g></g><g style="fill:#ffffff;fill-opacity:1;"><g transform="translate(56.640011, 186.529239)"><path style="stroke:none" d="M 17.625 0 L 1.71875 0 L 1.71875 -20.0625 L 17.625 -20.0625 L 17.625 -16.046875 L 6.875 -16.046875 L 6.875 -12.171875 L 15.328125 -12.171875 L 15.328125 -8.171875 L 6.875 -8.171875 L 6.875 -4.015625 L 17.625 -4.015625 Z M 17.625 0 "/></g></g><g style="fill:#ffffff;fill-opacity:1;"><g transform="translate(75.260217, 186.529239)"><path style="stroke:none" d="M 14.609375 -14.609375 C 14.609375 -15.753906 14.035156 -16.328125 12.890625 -16.328125 L 8.03125 -16.328125 C 6.875 -16.328125 6.296875 -15.753906 6.296875 -14.609375 L 6.296875 -5.4375 C 6.296875 -4.289062 6.875 -3.71875 8.03125 -3.71875 L 12.890625 -3.71875 C 14.035156 -3.71875 14.609375 -4.289062 14.609375 -5.4375 Z M 19.765625 -5.4375 C 19.765625 -3.4375 19.3125 -1.984375 18.40625 -1.078125 C 17.5 -0.171875 16.046875 0.28125 14.046875 0.28125 L 6.875 0.28125 C 4.875 0.28125 3.414062 -0.171875 2.5 -1.078125 C 1.59375 -1.984375 1.140625 -3.4375 1.140625 -5.4375 L 1.140625 -14.609375 C 1.140625 -16.617188 1.59375 -18.078125 2.5 -18.984375 C 3.414062 -19.890625 4.875 -20.34375 6.875 -20.34375 L 14.046875 -20.34375 C 16.046875 -20.34375 17.5 -19.890625 18.40625 -18.984375 C 19.3125 -18.078125 19.765625 -16.617188 19.765625 -14.609375 Z M 19.765625 -5.4375 "/></g></g><g style="fill:#ffffff;fill-opacity:1;"><g transform="translate(37.017186, 218.161268)"><path style="stroke:none" d="M 14.609375 -14.609375 C 14.609375 -15.753906 14.035156 -16.328125 12.890625 -16.328125 L 8.03125 -16.328125 C 6.875 -16.328125 6.296875 -15.753906 6.296875 -14.609375 L 6.296875 -5.4375 C 6.296875 -4.289062 6.875 -3.71875 8.03125 -3.71875 L 12.890625 -3.71875 C 14.035156 -3.71875 14.609375 -4.289062 14.609375 -5.4375 Z M 19.765625 -5.4375 C 19.765625 -3.4375 19.3125 -1.984375 18.40625 -1.078125 C 17.5 -0.171875 16.046875 0.28125 14.046875 0.28125 L 6.875 0.28125 C 4.875 0.28125 3.414062 -0.171875 2.5 -1.078125 C 1.59375 -1.984375 1.140625 -3.4375 1.140625 -5.4375 L 1.140625 -14.609375 C 1.140625 -16.617188 1.59375 -18.078125 2.5 -18.984375 C 3.414062 -19.890625 4.875 -20.34375 6.875 -20.34375 L 14.046875 -20.34375 C 16.046875 -20.34375 17.5 -19.890625 18.40625 -18.984375 C 19.3125 -18.078125 19.765625 -16.617188 19.765625 -14.609375 Z M 19.765625 -5.4375 "/></g></g><g style="fill:#ffffff;fill-opacity:1;"><g transform="translate(58.358766, 218.161268)"><path style="stroke:none" d="M 9.890625 -11.3125 C 8.878906 -11.3125 7.734375 -11.125 6.453125 -10.75 L 6.453125 -3.875 L 10.75 -3.875 C 11.507812 -3.875 11.890625 -4.253906 11.890625 -5.015625 L 11.890625 -10.3125 C 11.890625 -10.601562 11.789062 -10.84375 11.59375 -11.03125 C 11.40625 -11.21875 11.171875 -11.3125 10.890625 -11.3125 Z M 6.453125 0 L 6.453125 4.875 L 1.4375 4.875 L 1.4375 -15.1875 L 5.875 -15.1875 L 6.15625 -13.75 C 7.0625 -14.34375 7.984375 -14.773438 8.921875 -15.046875 C 9.867188 -15.328125 10.664062 -15.46875 11.3125 -15.46875 L 12.609375 -15.46875 C 13.910156 -15.46875 14.953125 -15.078125 15.734375 -14.296875 C 16.515625 -13.515625 16.90625 -12.472656 16.90625 -11.171875 L 16.90625 -4.578125 C 16.90625 -3.148438 16.5 -2.03125 15.6875 -1.21875 C 14.875 -0.40625 13.753906 0 12.328125 0 Z M 6.453125 0 "/></g></g><g style="fill:#ffffff;fill-opacity:1;"><g transform="translate(76.83574, 218.161268)"><path style="stroke:none" d="M 12.03125 0 C 10.175781 0.1875 8.363281 0.28125 6.59375 0.28125 C 5.289062 0.28125 4.25 -0.109375 3.46875 -0.890625 C 2.6875 -1.671875 2.296875 -2.710938 2.296875 -4.015625 L 2.296875 -11.3125 L 0.578125 -11.3125 L 0.578125 -15.1875 L 2.296875 -15.1875 L 2.859375 -18.625 L 7.3125 -18.625 L 7.3125 -15.1875 L 10.890625 -15.1875 L 10.890625 -11.3125 L 7.3125 -11.3125 L 7.3125 -4.734375 C 7.3125 -4.441406 7.40625 -4.195312 7.59375 -4 C 7.78125 -3.8125 8.019531 -3.71875 8.3125 -3.71875 L 12.03125 -3.71875 Z M 12.03125 0 "/></g></g><g style="fill:#ffffff;fill-opacity:1;"><g transform="translate(89.869967, 218.161268)"><path style="stroke:none" d="M 7.734375 -14.609375 L 7.734375 0 L 2.71875 0 L 2.71875 -10.75 L 0.578125 -10.75 L 0.578125 -14.609375 Z M 2.71875 -20.34375 L 7.734375 -20.34375 L 7.734375 -16.328125 L 2.71875 -16.328125 Z M 2.71875 -20.34375 "/></g></g><g style="fill:#ffffff;fill-opacity:1;"><g transform="translate(99.466663, 218.161268)"><path style="stroke:none" d="M 11.609375 -15.46875 C 13.148438 -15.46875 14.34375 -14.894531 15.1875 -13.75 C 16.0625 -14.34375 17.007812 -14.773438 18.03125 -15.046875 C 19.0625 -15.328125 19.976562 -15.46875 20.78125 -15.46875 L 21.0625 -15.46875 C 22.363281 -15.46875 23.40625 -15.078125 24.1875 -14.296875 C 24.96875 -13.515625 25.359375 -12.472656 25.359375 -11.171875 L 25.359375 0 L 20.34375 0 L 20.34375 -10.3125 C 20.34375 -10.601562 20.242188 -10.84375 20.046875 -11.03125 C 19.859375 -11.21875 19.625 -11.3125 19.34375 -11.3125 L 19.203125 -11.3125 C 18.335938 -11.3125 17.238281 -11.125 15.90625 -10.75 L 15.90625 0 L 10.890625 0 L 10.890625 -10.3125 C 10.890625 -10.601562 10.789062 -10.84375 10.59375 -11.03125 C 10.40625 -11.21875 10.171875 -11.3125 9.890625 -11.3125 L 9.75 -11.3125 C 8.882812 -11.3125 7.785156 -11.125 6.453125 -10.75 L 6.453125 0 L 1.4375 0 L 1.4375 -15.1875 L 5.875 -15.1875 L 6.15625 -13.75 C 7.0625 -14.34375 7.984375 -14.773438 8.921875 -15.046875 C 9.867188 -15.328125 10.664062 -15.46875 11.3125 -15.46875 Z M 11.609375 -15.46875 "/></g></g><g style="fill:#ffffff;fill-opacity:1;"><g transform="translate(126.394222, 218.161268)"><path style="stroke:none" d="M 7.734375 -14.609375 L 7.734375 0 L 2.71875 0 L 2.71875 -10.75 L 0.578125 -10.75 L 0.578125 -14.609375 Z M 2.71875 -20.34375 L 7.734375 -20.34375 L 7.734375 -16.328125 L 2.71875 -16.328125 Z M 2.71875 -20.34375 "/></g></g><g style="fill:#ffffff;fill-opacity:1;"><g transform="translate(135.990918, 218.161268)"><path style="stroke:none" d="M 14.765625 -11.3125 L 6.875 -3.875 L 14.765625 -3.875 L 14.765625 0 L 0.578125 0 L 0.578125 -3.875 L 8.453125 -11.3125 L 0.578125 -11.3125 L 0.578125 -15.1875 L 14.765625 -15.1875 Z M 14.765625 -11.3125 "/></g></g><g style="fill:#ffffff;fill-opacity:1;"><g transform="translate(151.746519, 218.161268)"><path style="stroke:none" d="M 7.3125 -11.890625 C 6.539062 -11.890625 6.15625 -11.507812 6.15625 -10.75 L 6.15625 -9.171875 L 11.03125 -9.171875 L 11.03125 -10.75 C 11.03125 -11.507812 10.648438 -11.890625 9.890625 -11.890625 Z M 15.46875 -0.28125 C 11.78125 0.09375 8.4375 0.28125 5.4375 0.28125 C 4.144531 0.28125 3.101562 -0.109375 2.3125 -0.890625 C 1.53125 -1.671875 1.140625 -2.710938 1.140625 -4.015625 L 1.140625 -10.890625 C 1.140625 -12.316406 1.546875 -13.4375 2.359375 -14.25 C 3.171875 -15.0625 4.296875 -15.46875 5.734375 -15.46875 L 11.46875 -15.46875 C 12.894531 -15.46875 14.015625 -15.0625 14.828125 -14.25 C 15.640625 -13.4375 16.046875 -12.316406 16.046875 -10.890625 L 16.046875 -5.59375 L 6.15625 -5.59375 L 6.15625 -4.4375 C 6.15625 -4.15625 6.25 -3.914062 6.4375 -3.71875 C 6.632812 -3.53125 6.875 -3.4375 7.15625 -3.4375 C 9.050781 -3.4375 11.820312 -3.582031 15.46875 -3.875 Z M 15.46875 -0.28125 "/></g></g><g style="fill:#ffffff;fill-opacity:1;"><g transform="translate(169.364106, 218.161268)"><path style="stroke:none" d="M 10.171875 -11.03125 C 8.972656 -11.03125 7.734375 -10.742188 6.453125 -10.171875 L 6.453125 0 L 1.4375 0 L 1.4375 -15.1875 L 5.875 -15.1875 L 6.15625 -13.328125 C 7.800781 -14.753906 9.519531 -15.46875 11.3125 -15.46875 L 12.609375 -15.46875 L 12.609375 -11.03125 Z M 10.171875 -11.03125 "/></g></g></g></svg>